<svg width="155" height="161" viewBox="0 0 155 161" fill="none" xmlns="http://www.w3.org/2000/svg">
<path d="M49.8583 51.4817H19.1904C19.1904 51.4817 21.3678 67.2367 34.5428 67.2367C47.7178 67.2367 49.8583 51.4817 49.8583 51.4817ZM77.5 57.5C77.5016 50.5989 79.3409 43.8328 82.8142 37.95C81.0531 37.6881 79.2786 37.5345 77.5 37.49C55.3571 37.49 49.8583 52.2483 49.8583 52.2483C49.9615 72.3642 53.0613 92.3423 59.0476 111.473V112.432C59.0491 110.597 59.5811 108.804 60.5747 107.287C61.5683 105.77 62.9777 104.597 64.6202 103.922C72.9138 100.487 82.1599 100.487 90.4535 103.922C92.0823 104.609 93.476 105.787 94.4557 107.303C95.4355 108.82 95.9567 110.605 95.9523 112.432V111.512C97.8171 105.553 99.3937 99.5019 100.676 93.38C93.9073 90.3377 88.1235 85.3377 84.0142 78.976C79.905 72.6143 77.6437 65.1594 77.5 57.5ZM88.5714 122.092C87.9781 124.673 86.5668 126.972 84.5641 128.62C82.5615 130.267 80.0837 131.168 77.529 131.177C74.9742 131.185 72.4908 130.302 70.4776 128.668C68.4644 127.035 67.0383 124.745 66.4285 122.168L88.5714 122.092Z" fill="white"/>
<path d="M120.494 67.16C107.725 67.16 105.732 51.8267 105.732 51.8267H135.514C135.514 51.8267 133.263 67.16 120.494 67.16ZM83.2571 39.0233C80.7006 43.6588 79.14 48.8138 78.6824 54.1348C78.2247 59.4557 78.8809 64.8165 80.6058 69.8492C82.3307 74.882 85.0835 79.4674 88.6753 83.2909C92.2671 87.1144 96.6128 90.0854 101.414 92C104.026 79.2591 105.362 66.2716 105.4 53.245C105.4 53.245 100.861 40.9017 83.2571 39.0233ZM70.119 122.092H67.8309C65.4848 122.082 63.2376 121.109 61.5787 119.386C59.9198 117.663 58.9835 115.329 58.9738 112.892C58.9779 111.052 59.5105 109.256 60.5032 107.734C61.496 106.211 62.9038 105.03 64.5464 104.343C72.8492 100.959 82.0769 100.959 90.3797 104.343C92.0223 105.03 93.4301 106.211 94.4228 107.734C95.4156 109.256 95.9482 111.052 95.9523 112.892C95.9426 115.329 95.0063 117.663 93.3474 119.386C91.6885 121.109 89.4413 122.082 87.0952 122.092H70.119Z" fill="#C06B9A"/>
<path d="M88.3149 118.78V118.818C88.31 119.681 87.9761 120.506 87.3864 121.113C86.7967 121.72 85.9992 122.06 85.1688 122.057C84.3385 122.055 83.543 121.711 82.9567 121.1C82.3704 120.489 82.0412 119.662 82.0412 118.799C82.0412 117.937 82.3704 117.109 82.9567 116.499C83.543 115.888 84.3385 115.543 85.1688 115.541C85.9992 115.538 86.7967 115.878 87.3864 116.485C87.9761 117.092 88.31 117.918 88.3149 118.78ZM59.603 74.2367C58.8731 74.2367 58.1596 74.4615 57.5527 74.8827C56.9458 75.3039 56.4728 75.9026 56.1935 76.6031C55.9141 77.3035 55.8411 78.0743 55.9835 78.8178C56.1259 79.5614 56.4773 80.2445 56.9935 80.7806C57.5096 81.3167 58.1672 81.6818 58.883 81.8297C59.5989 81.9776 60.341 81.9017 61.0153 81.6115C61.6897 81.3214 62.266 80.8301 62.6715 80.1997C63.0771 79.5693 63.2935 78.8282 63.2935 78.07C63.2935 77.0533 62.9047 76.0783 62.2126 75.3594C61.5205 74.6405 60.5818 74.2367 59.603 74.2367ZM138.007 57.3501C138.005 57.4336 137.999 57.5171 137.989 57.6V57.7533C137.14 63.8867 132.342 75.54 120.348 75.54C117.724 75.601 115.125 74.9893 112.782 73.7591C110.439 72.5289 108.424 70.7181 106.915 68.4867C106.019 85.4219 103.042 102.169 98.0578 118.32V118.742C98.0588 121.183 97.312 123.561 95.9253 125.532C94.5387 127.503 92.5842 128.965 90.3447 129.705C89.412 132.556 87.6433 135.031 85.287 136.784C82.9307 138.537 80.105 139.48 77.2066 139.48C74.3081 139.48 71.4825 138.537 69.1262 136.784C66.7698 135.031 65.0012 132.556 64.0685 129.705C61.829 128.965 59.8745 127.503 58.4879 125.532C57.1012 123.561 56.3544 121.183 56.3554 118.742V118.32C51.3669 102.17 48.3904 85.4224 47.4983 68.4867C46.0033 70.6963 44.0118 72.4937 41.6966 73.7229C39.3814 74.952 36.8124 75.5757 34.2125 75.54C22.2185 75.54 17.4209 64.04 16.5721 57.7533C16.4936 57.1079 16.6652 56.4565 17.0491 55.9424C17.433 55.4283 17.9978 55.0937 18.6192 55.0121C18.6992 55.0016 18.7796 54.9954 18.8602 54.9933H48.8268C51.7423 50.3167 59.5292 41.5 77.1697 41.5H81.0816C96.0649 42.65 102.929 50.5467 105.623 54.84H135.701C136.011 54.8475 136.316 54.9184 136.6 55.0486C136.884 55.1788 137.14 55.3658 137.354 55.5989C137.568 55.832 137.736 56.1066 137.848 56.4071C137.96 56.7075 138.014 57.028 138.007 57.3501ZM46.834 59.785H22.034C22.2732 60.8917 22.6436 61.9634 23.1367 62.9755C23.0712 62.8014 23.0353 62.6168 23.0304 62.43C23.0303 61.9892 23.1963 61.5659 23.4929 61.2507C23.7895 60.9355 24.1931 60.7534 24.6173 60.7433V60.705C24.8306 60.71 25.0408 60.7586 25.236 60.8479C25.4312 60.9373 25.6075 61.0658 25.7548 61.226C25.9022 61.3862 26.0177 61.575 26.0948 61.7816C26.172 61.9881 26.2091 62.2085 26.2042 62.43C26.2042 62.8672 26.037 63.2864 25.7394 63.5955C25.4418 63.9047 25.0382 64.0783 24.6173 64.0783C24.3382 64.0755 24.0648 63.9952 23.8256 63.8458C23.5863 63.6964 23.3899 63.4833 23.2566 63.2285C24.3212 65.3979 25.9194 67.2363 27.8889 68.557C29.8584 69.8776 32.1292 70.6337 34.4709 70.7483C36.6401 70.643 38.7509 69.9836 40.6163 68.8286C40.4432 68.5713 40.3467 68.2668 40.3387 67.9531C40.3366 67.6225 40.4308 67.2958 40.6089 67.0218C40.787 66.7478 41.0407 66.5362 41.3367 66.4146C41.6327 66.2931 41.9572 66.2674 42.2675 66.3409C42.5779 66.4144 42.8595 66.5837 43.0756 66.8265C44.9798 64.9238 46.2893 62.4705 46.834 59.785ZM85.3256 130.395H69.4197C70.2896 131.756 71.4765 132.867 72.87 133.624C74.2636 134.381 75.8187 134.76 77.3911 134.727C78.9591 134.765 80.5105 134.387 81.8988 133.629C83.2872 132.871 84.4666 131.758 85.3256 130.395ZM93.6292 118.895C93.6299 117.537 93.2404 116.21 92.5106 115.083C91.7809 113.956 90.744 113.081 89.5328 112.57C81.7348 109.352 73.0474 109.352 65.2494 112.57C63.823 113.145 62.6361 114.222 61.8958 115.613C61.1556 117.004 60.9089 118.621 61.1988 120.181C61.4888 121.742 62.2969 123.147 63.4823 124.152C64.6677 125.157 66.1552 125.698 67.6852 125.68H87.0971C88.8295 125.68 90.491 124.965 91.716 123.693C92.941 122.42 93.6292 120.694 93.6292 118.895ZM98.2264 100.142C91.3094 96.9599 85.4256 91.7688 81.2837 85.1935C77.1418 78.6182 74.9185 70.9393 74.8816 63.0817C74.9458 57.3127 76.2044 51.6256 78.5721 46.4067H77.3911C58.9387 46.4067 53.0709 57.0633 52.0745 59.2483C52.2102 76.8702 54.6308 94.3928 59.2709 111.343C60.4458 109.958 61.91 108.869 63.5518 108.162C72.4446 104.518 82.3376 104.518 91.2304 108.162C92.8722 108.869 94.3365 109.958 95.5114 111.343C96.3188 108.255 97.2721 104.52 98.2264 100.142ZM99.128 95.2817C99.3199 94.257 99.4576 93.2232 99.6332 92.1954C99.4178 92.0154 99.2525 91.7788 99.1544 91.5103C99.0564 91.2417 99.0291 90.9508 99.0754 90.6676C99.1217 90.3844 99.2399 90.1192 99.4178 89.8993C99.5957 89.6794 99.8269 89.5128 100.088 89.4167C100.503 86.7635 100.862 84.1032 101.166 81.4357C100.999 81.5071 100.822 81.5486 100.641 81.5583C100.217 81.5483 99.8133 81.3662 99.5167 81.051C99.2201 80.7357 99.0541 80.3124 99.0542 79.8717C99.0642 79.7596 99.0857 79.6489 99.1184 79.5416C98.896 80.0372 98.5695 80.4746 98.1627 80.8216C97.756 81.1686 97.2795 81.4164 96.7683 81.5467C96.2571 81.6771 95.7242 81.6866 95.209 81.5746C94.6938 81.4626 94.2094 81.232 93.7914 80.8997C93.3734 80.5674 93.0326 80.1419 92.7939 79.6546C92.5553 79.1673 92.4249 78.6305 92.4125 78.0839C92.4001 77.5374 92.5059 76.9949 92.7222 76.4964C92.9384 75.9979 93.2596 75.5562 93.662 75.2038C93.5335 74.9879 93.455 74.7439 93.4328 74.4911C93.4106 74.2383 93.4452 73.9836 93.5339 73.747C93.6226 73.5105 93.7631 73.2986 93.9441 73.1281C94.1251 72.9575 94.3419 72.833 94.5771 72.7643C94.8124 72.6957 95.0599 72.6847 95.2999 72.7323C95.54 72.78 95.7661 72.8849 95.9605 73.0388C96.1548 73.1927 96.3121 73.3914 96.4199 73.6192C96.5277 73.8471 96.583 74.0978 96.5816 74.3517L96.5716 74.4046C97.0738 74.4683 97.5554 74.6501 97.9798 74.936C98.4043 75.2218 98.7605 75.6044 99.0215 76.0545C99.2825 76.5047 99.4413 77.0107 99.486 77.5341C99.5306 78.0575 99.46 78.5847 99.2793 79.0755C99.4124 78.8201 99.6089 78.6064 99.8484 78.4566C100.088 78.3067 100.362 78.2262 100.641 78.2233C100.953 78.2314 101.255 78.3372 101.507 78.5269C102.158 72.1088 102.497 65.6606 102.521 59.2069C102.435 59.0252 102.303 58.7669 102.142 58.4736C102.038 58.8013 101.837 59.0863 101.567 59.2875C101.298 59.4887 100.973 59.5958 100.641 59.5933V59.4017C100.225 59.4035 99.8253 59.2351 99.528 58.9329C99.2307 58.6307 99.06 58.2191 99.0528 57.7871C99.0456 57.3551 99.2026 56.9376 99.4896 56.6249C99.7767 56.3122 100.171 56.1296 100.586 56.1165C99.4167 54.606 98.0625 53.2601 96.558 52.113C96.5613 52.1548 96.5812 52.1896 96.5812 52.2333C96.5843 52.5364 96.5069 52.8345 96.3575 53.0949C96.208 53.3552 95.9924 53.5678 95.7342 53.7091C95.4761 53.8504 95.1854 53.915 94.8942 53.8959C94.6029 53.8767 94.3224 53.7745 94.0835 53.6005C93.8445 53.4265 93.6564 53.1875 93.5398 52.9096C93.4231 52.6318 93.3825 52.3259 93.4224 52.0257C93.4622 51.7254 93.581 51.4423 93.7657 51.2077C93.9504 50.973 94.1938 50.7957 94.4692 50.6954C91.0299 48.6392 87.2322 47.3118 83.2959 46.79C80.8292 51.8359 79.5636 57.4227 79.6054 63.0817C79.6383 69.8074 81.4847 76.3891 84.9353 82.0804C88.3859 87.7718 93.3026 92.345 99.128 95.2817ZM132.785 59.8617H107.948C108.404 62.6881 109.749 65.2777 111.773 67.2251C111.897 67.1816 112.025 67.1546 112.155 67.145C112.572 67.1558 112.968 67.3328 113.263 67.6393C113.557 67.9459 113.726 68.3584 113.735 68.791C116.309 70.4882 119.393 71.1475 122.404 70.6445C122.687 70.5962 122.952 70.5007 123.228 70.4332C122.892 70.3449 122.595 70.1436 122.381 69.8608C122.167 69.5779 122.05 69.2295 122.047 68.87C122.038 68.5982 122.095 68.3284 122.211 68.0847C122.327 67.841 122.499 67.6309 122.712 67.4731C122.926 67.3154 123.173 67.2149 123.433 67.1806C123.693 67.1463 123.956 67.1793 124.201 67.2766C124.445 67.3739 124.663 67.5325 124.834 67.7383C125.005 67.9441 125.125 68.1907 125.182 68.4561C125.239 68.7215 125.232 68.9974 125.161 69.2593C125.091 69.5212 124.959 69.7609 124.778 69.9571C126.85 69.1549 128.681 67.7991 130.087 66.0265C131.493 64.2539 132.424 62.1274 132.785 59.8617ZM69.6042 115.56H69.5304C68.7017 115.57 67.9105 115.92 67.3297 116.535C66.7489 117.149 66.4256 117.976 66.4305 118.837C66.4353 119.698 66.768 120.522 67.3557 121.129C67.9435 121.736 68.7385 122.076 69.5673 122.076C70.3961 122.076 71.1912 121.736 71.7789 121.129C72.3666 120.522 72.6993 119.698 72.7042 118.837C72.709 117.976 72.3857 117.149 71.8049 116.535C71.2241 115.92 70.4329 115.57 69.6042 115.56ZM30.4483 69.5983C30.8691 69.5954 31.272 69.4211 31.5703 69.1127C31.8686 68.8044 32.0384 68.3868 32.0433 67.9497C32.0481 67.5126 31.8876 67.091 31.5962 66.7756C31.3048 66.4602 30.9058 66.2763 30.4852 66.2633H30.4483V66.3017C30.0274 66.3017 29.6238 66.4753 29.3261 66.7845C29.0285 67.0936 28.8614 67.5128 28.8614 67.95C28.8614 68.3872 29.0285 68.8064 29.3261 69.1156C29.6238 69.4247 30.0274 69.5983 30.4483 69.5983ZM36.3571 63.8437C36.7527 63.8059 37.1183 63.6081 37.3749 63.2931C37.6316 62.978 37.7588 62.5708 37.7292 62.1593C37.6997 61.7477 37.5157 61.3647 37.2168 61.0927C36.918 60.8206 36.5283 60.6814 36.1316 60.705H36.0947V60.7433C35.8784 60.7315 35.6622 60.768 35.4606 60.8505C35.2591 60.9329 35.077 61.0593 34.9265 61.2212C34.7761 61.3831 34.6609 61.5766 34.5886 61.7887C34.5164 62.0008 34.4888 62.2265 34.5078 62.4506C34.5268 62.6748 34.5919 62.892 34.6987 63.0878C34.8055 63.2835 34.9515 63.4531 35.1269 63.5852C35.3022 63.7173 35.5028 63.8087 35.7151 63.8533C35.9274 63.8979 36.1461 63.8946 36.3571 63.8437ZM100.641 70.48C100.955 70.48 101.262 70.3833 101.523 70.2022C101.784 70.0211 101.987 69.7637 102.107 69.4625C102.227 69.1613 102.259 68.8298 102.198 68.5101C102.136 68.1903 101.985 67.8966 101.763 67.6661C101.541 67.4356 101.259 67.2786 100.951 67.215C100.643 67.1514 100.324 67.184 100.034 67.3088C99.7439 67.4336 99.496 67.6448 99.3216 67.9159C99.1473 68.187 99.0542 68.5057 99.0542 68.8317C99.0542 69.2688 99.2214 69.6881 99.519 69.9972C99.8166 70.3063 100.22 70.48 100.641 70.48ZM83.2549 61.3904C82.8448 61.4835 82.481 61.7274 82.2304 62.0772C81.9799 62.427 81.8595 62.859 81.8914 63.2937C81.9234 63.7285 82.1055 64.1365 82.4043 64.4427C82.7031 64.749 83.0984 64.9327 83.5173 64.96C83.9382 64.96 84.3418 64.7863 84.6394 64.4772C84.937 64.1681 85.1042 63.7488 85.1042 63.3117C85.1425 63.0503 85.121 62.7832 85.0416 62.5319C84.9621 62.2807 84.8269 62.0524 84.6469 61.8655C84.4669 61.6785 84.2471 61.5382 84.0052 61.4557C83.7634 61.3732 83.5066 61.3506 83.2549 61.3904ZM129.464 64.9983V64.96C129.459 64.5296 129.29 64.1187 128.995 63.8171C128.699 63.5154 128.301 63.3475 127.886 63.35C127.472 63.3526 127.075 63.5253 126.783 63.8306C126.491 64.1358 126.327 64.5487 126.327 64.9792C126.327 65.4096 126.491 65.8225 126.783 66.1278C127.075 66.433 127.472 66.6058 127.886 66.6083C128.301 66.6108 128.699 66.4429 128.995 66.1413C129.29 65.8396 129.459 65.4287 129.464 64.9983ZM94.9947 83.7817C94.6808 83.7817 94.374 83.8783 94.113 84.0595C93.8521 84.2406 93.6487 84.498 93.5286 84.7992C93.4085 85.1004 93.377 85.4318 93.4383 85.7516C93.4995 86.0713 93.6506 86.365 93.8726 86.5955C94.0945 86.8261 94.3773 86.9831 94.6851 87.0467C94.9929 87.1103 95.312 87.0776 95.602 86.9529C95.8919 86.8281 96.1398 86.6168 96.3141 86.3458C96.4885 86.0747 96.5816 85.756 96.5816 85.43C96.5816 84.9928 96.4144 84.5736 96.1168 84.2645C95.8192 83.9553 95.4156 83.7817 94.9947 83.7817ZM89.1637 56.105C88.7429 56.105 88.3392 56.2787 88.0416 56.5878C87.744 56.8969 87.5768 57.3162 87.5768 57.7533C87.5768 58.1905 87.744 58.6098 88.0416 58.9189C88.3392 59.228 88.7429 59.4017 89.1637 59.4017V59.5933C89.593 59.5686 89.9968 59.374 90.2922 59.0497C90.5877 58.7253 90.7523 58.2957 90.7523 57.8492C90.7523 57.4026 90.5877 56.973 90.2922 56.6487C89.9968 56.3243 89.593 56.1297 89.1637 56.105ZM117.986 64.9983V64.96C118.401 64.9601 118.799 64.7917 119.096 64.4908C119.392 64.19 119.564 63.7805 119.573 63.35C119.577 63.0186 119.485 62.6936 119.31 62.4164C119.135 62.1393 118.885 61.9226 118.591 61.794C118.297 61.6655 117.972 61.6308 117.659 61.6946C117.346 61.7583 117.058 61.9175 116.833 62.1518C116.607 62.3862 116.454 62.6851 116.393 63.0103C116.331 63.3355 116.365 63.6724 116.488 63.9779C116.612 64.2833 116.821 64.5435 117.088 64.7253C117.354 64.9071 117.667 65.0021 117.986 64.9983ZM89.1637 67.1833C88.8499 67.1833 88.5431 67.28 88.2821 67.4611C88.0211 67.6422 87.8177 67.8997 87.6976 68.2009C87.5775 68.5021 87.5461 68.8335 87.6073 69.1532C87.6685 69.473 87.8197 69.7667 88.0416 69.9972C88.2635 70.2277 88.5463 70.3847 88.8541 70.4483C89.162 70.5119 89.481 70.4793 89.771 70.3545C90.061 70.2298 90.3088 70.0185 90.4832 69.7474C90.6576 69.4764 90.7506 69.1577 90.7506 68.8317C90.7506 68.3945 90.5835 67.9752 90.2858 67.6661C89.9882 67.357 89.5846 67.1833 89.1637 67.1833ZM83.5173 50.585C83.0964 50.585 82.6928 50.7587 82.3952 51.0678C82.0976 51.3769 81.9304 51.7962 81.9304 52.2333C81.9304 52.6705 82.0976 53.0898 82.3952 53.3989C82.6928 53.708 83.0964 53.8817 83.5173 53.8817C83.9352 53.8719 84.3334 53.6951 84.629 53.3881C84.9246 53.081 85.0948 52.6674 85.1042 52.2333C85.1042 51.7962 84.937 51.3769 84.6394 51.0678C84.3418 50.7587 83.9382 50.585 83.5173 50.585ZM83.7432 72.9376C83.4372 72.9099 83.1304 72.9807 82.8645 73.1403C82.5985 73.2999 82.3863 73.5406 82.2566 73.8298C82.1269 74.119 82.0859 74.4426 82.1393 74.7568C82.1927 75.071 82.3379 75.3605 82.5551 75.5861C82.7723 75.8116 83.0511 75.9623 83.3535 76.0177C83.656 76.0731 83.9676 76.0305 84.246 75.8956C84.5243 75.7608 84.756 75.5403 84.9096 75.264C85.0632 74.9878 85.1313 74.6691 85.1046 74.3513C85.0524 73.9956 84.8922 73.6665 84.6472 73.4122C84.4022 73.1578 84.0856 72.9915 83.7432 72.9376ZM89.1637 78.2233C88.7429 78.2233 88.3392 78.397 88.0416 78.7061C87.744 79.0152 87.5768 79.4345 87.5768 79.8717C87.5768 80.3088 87.744 80.7281 88.0416 81.0372C88.3392 81.3463 88.7429 81.52 89.1637 81.52C89.5846 81.52 89.9882 81.3463 90.2858 81.0372C90.5835 80.7281 90.7506 80.3088 90.7506 79.8717C90.7506 79.4345 90.5835 79.0152 90.2858 78.7061C89.9882 78.397 89.5846 78.2233 89.1637 78.2233ZM94.9947 64.96C95.3085 64.96 95.6154 64.8633 95.8763 64.6822C96.1373 64.5011 96.3407 64.2437 96.4608 63.9425C96.5809 63.6413 96.6123 63.3098 96.5511 62.9901C96.4899 62.6703 96.3387 62.3766 96.1168 62.1461C95.8949 61.9156 95.6121 61.7586 95.3043 61.695C94.9964 61.6314 94.6774 61.664 94.3874 61.7888C94.0974 61.9136 93.8496 62.1248 93.6752 62.3959C93.5008 62.667 93.4078 62.9857 93.4078 63.3117C93.4078 63.7488 93.575 64.1681 93.8726 64.4772C94.1702 64.7863 94.5738 64.96 94.9947 64.96Z" fill="#004F71"/>
</svg>
