<svg width="113" height="113" viewBox="0 0 113 113" fill="none" xmlns="http://www.w3.org/2000/svg">
<path d="M46.1875 79.5324C45.8506 79.5275 45.516 79.5891 45.2029 79.7136C44.8898 79.8381 44.6043 80.0231 44.3627 80.258C44.1211 80.4929 43.9282 80.7731 43.7949 81.0826C43.6617 81.3921 43.5907 81.7248 43.5861 82.0617V82.1967C43.6052 82.8739 43.8876 83.517 44.3734 83.9892C44.8591 84.4615 45.5099 84.7257 46.1874 84.7257C46.8649 84.7257 47.5157 84.4615 48.0014 83.9892C48.4872 83.517 48.7696 82.8739 48.7888 82.1967V82.0617C48.7841 81.7248 48.7131 81.3921 48.5799 81.0826C48.4466 80.7732 48.2537 80.493 48.0122 80.2581C47.7706 80.0232 47.4851 79.8382 47.172 79.7137C46.8589 79.5892 46.5244 79.5275 46.1875 79.5324ZM64.3747 83.3135C64.3728 84.824 63.7718 86.272 62.7036 87.3399C61.6354 88.4078 60.1873 89.0084 58.6768 89.0099H33.6982C32.1877 89.0084 30.7396 88.4078 29.6714 87.3399C28.6032 86.272 28.0022 84.824 28.0003 83.3135V28.6984C28.0021 27.1878 28.603 25.7395 29.6712 24.6714C30.7393 23.6032 32.1876 23.0023 33.6982 23.0005H58.6768C60.1874 23.0023 61.6357 23.6032 62.7038 24.6714C63.772 25.7395 64.3729 27.1878 64.3747 28.6984V83.3135ZM58.6768 20H33.6982C31.3919 20.0021 29.1807 20.9193 27.5499 22.5501C25.9192 24.1809 25.0021 26.3921 25 28.6984V83.3135C25.0027 85.6195 25.92 87.8302 27.5507 89.4606C29.1814 91.091 31.3922 92.0079 33.6982 92.0102H58.6768C60.9827 92.0076 63.1934 91.0906 64.824 89.4603C66.4547 87.8299 67.3721 85.6194 67.375 83.3135V28.6984C67.3727 26.3922 66.4555 24.1811 64.8248 22.5503C63.1941 20.9196 60.983 20.0024 58.6768 20ZM60.0219 32.2097H32.3535C31.9585 32.2141 31.5812 32.3741 31.3035 32.6549C31.0258 32.9358 30.87 33.3148 30.87 33.7098C30.87 34.1048 31.0258 34.4838 31.3035 34.7647C31.5812 35.0456 31.9585 35.2056 32.3535 35.21H60.0219C60.4169 35.2056 60.7941 35.0456 61.0719 34.7647C61.3496 34.4838 61.5054 34.1048 61.5054 33.7098C61.5054 33.3148 61.3496 32.9358 61.0719 32.6549C60.7941 32.3741 60.4169 32.2141 60.0219 32.2097ZM60.0219 74.1468H32.3535C31.9585 74.1512 31.5812 74.3112 31.3035 74.5921C31.0258 74.8729 30.87 75.252 30.87 75.6469C30.87 76.0419 31.0258 76.421 31.3035 76.7018C31.5812 76.9827 31.9585 77.1427 32.3535 77.1471H60.0219C60.4169 77.1427 60.7941 76.9827 61.0719 76.7018C61.3496 76.421 61.5054 76.0419 61.5054 75.6469C61.5054 75.252 61.3496 74.8729 61.0719 74.5921C60.7941 74.3112 60.4169 74.1512 60.0219 74.1468ZM39.3442 40.0053C39.5797 40.006 39.81 39.9367 40.0061 39.8064C40.2021 39.676 40.3551 39.4905 40.4456 39.2731C40.5362 39.0558 40.5602 38.8165 40.5147 38.5855C40.4691 38.3545 40.3561 38.1422 40.1898 37.9755C40.0235 37.8088 39.8116 37.6952 39.5807 37.649C39.3498 37.6029 39.1105 37.6262 38.8929 37.7162C38.6753 37.8061 38.4893 37.9586 38.3584 38.1543C38.2276 38.35 38.1577 38.5802 38.1577 38.8156C38.1573 38.9717 38.1877 39.1263 38.2471 39.2707C38.3066 39.415 38.3939 39.5462 38.5041 39.6567C38.6143 39.7672 38.7453 39.8549 38.8894 39.9147C39.0336 39.9745 39.1881 40.0053 39.3442 40.0053ZM53.0321 40.0053C53.2675 40.006 53.4979 39.9367 53.6939 39.8064C53.89 39.676 54.043 39.4905 54.1335 39.2731C54.2241 39.0558 54.2481 38.8165 54.2025 38.5855C54.157 38.3545 54.0439 38.1422 53.8777 37.9755C53.7114 37.8088 53.4994 37.6952 53.2686 37.649C53.0377 37.6029 52.7983 37.6262 52.5808 37.7162C52.3632 37.8061 52.1772 37.9586 52.0463 38.1543C51.9155 38.35 51.8456 38.5802 51.8456 38.8156C51.8452 38.9717 51.8756 39.1263 51.935 39.2707C51.9944 39.415 52.0818 39.5462 52.192 39.6567C52.3022 39.7672 52.4331 39.8549 52.5773 39.9147C52.7215 39.9745 52.876 40.0053 53.0321 40.0053ZM46.1873 40.0053C46.4228 40.0062 46.6533 39.9372 46.8495 39.807C47.0457 39.6769 47.1989 39.4914 47.2897 39.274C47.3804 39.0567 47.4046 38.8174 47.3592 38.5863C47.3138 38.3552 47.2009 38.1428 47.0347 37.976C46.8685 37.8092 46.6565 37.6954 46.4256 37.6491C46.1947 37.6029 45.9553 37.6262 45.7376 37.7161C45.5199 37.806 45.3339 37.9585 45.2029 38.1542C45.072 38.3499 45.0021 38.5801 45.0021 38.8156C45.0017 38.9716 45.0321 39.1262 45.0914 39.2704C45.1508 39.4147 45.238 39.5458 45.3481 39.6563C45.4582 39.7668 45.589 39.8545 45.7331 39.9144C45.8771 39.9743 46.0313 40.0052 46.1873 40.0053ZM32.5011 40.0053C32.7366 40.006 32.9669 39.9367 33.163 39.8064C33.359 39.676 33.512 39.4905 33.6026 39.2731C33.6931 39.0558 33.7171 38.8165 33.6716 38.5855C33.626 38.3545 33.513 38.1422 33.3467 37.9755C33.1805 37.8088 32.9685 37.6952 32.7376 37.649C32.5067 37.6029 32.2674 37.6262 32.0498 37.7162C31.8322 37.8061 31.6462 37.9586 31.5154 38.1543C31.3845 38.35 31.3146 38.5802 31.3146 38.8156C31.3142 38.9717 31.3446 39.1263 31.404 39.2707C31.4635 39.415 31.5508 39.5462 31.661 39.6567C31.7712 39.7672 31.9022 39.8549 32.0463 39.9147C32.1905 39.9745 32.345 40.0053 32.5011 40.0053ZM39.3444 46.3505C39.5798 46.3511 39.8102 46.2819 40.0062 46.1515C40.2023 46.0212 40.3553 45.8356 40.4458 45.6183C40.5364 45.4009 40.5604 45.1616 40.5148 44.9306C40.4693 44.6996 40.3562 44.4874 40.19 44.3207C40.0237 44.154 39.8118 44.0403 39.5809 43.9942C39.35 43.948 39.1107 43.9714 38.8931 44.0613C38.6755 44.1513 38.4895 44.3038 38.3586 44.4995C38.2278 44.6952 38.1579 44.9253 38.1579 45.1608C38.1575 45.3168 38.1879 45.4715 38.2473 45.6158C38.3067 45.7601 38.3941 45.8913 38.5043 46.0018C38.6145 46.1123 38.7455 46.2 38.8896 46.2598C39.0338 46.3197 39.1883 46.3505 39.3444 46.3505ZM32.5011 46.3505C32.7366 46.3511 32.9669 46.2819 33.163 46.1515C33.359 46.0212 33.512 45.8356 33.6026 45.6183C33.6931 45.4009 33.7171 45.1616 33.6716 44.9306C33.626 44.6996 33.513 44.4874 33.3467 44.3207C33.1805 44.154 32.9685 44.0403 32.7376 43.9942C32.5067 43.948 32.2674 43.9714 32.0498 44.0613C31.8322 44.1513 31.6462 44.3038 31.5154 44.4995C31.3845 44.6952 31.3146 44.9253 31.3146 45.1608C31.3142 45.3168 31.3446 45.4715 31.404 45.6158C31.4635 45.7601 31.5508 45.8913 31.661 46.0018C31.7712 46.1123 31.9022 46.2 32.0463 46.2598C32.1905 46.3197 32.345 46.3505 32.5011 46.3505ZM53.0323 46.3505C53.2677 46.3511 53.4981 46.2819 53.6941 46.1515C53.8902 46.0212 54.0432 45.8356 54.1337 45.6183C54.2242 45.4009 54.2483 45.1616 54.2027 44.9306C54.1572 44.6996 54.0441 44.4874 53.8779 44.3207C53.7116 44.154 53.4996 44.0403 53.2688 43.9942C53.0379 43.948 52.7985 43.9714 52.5809 44.0613C52.3634 44.1513 52.1774 44.3038 52.0465 44.4995C51.9156 44.6952 51.8458 44.9253 51.8458 45.1608C51.8454 45.3168 51.8757 45.4715 51.9352 45.6158C51.9946 45.7601 52.082 45.8913 52.1922 46.0018C52.3024 46.1123 52.4333 46.2 52.5775 46.2598C52.7217 46.3197 52.8762 46.3505 53.0323 46.3505ZM46.1875 46.3505C46.423 46.3514 46.6535 46.2824 46.8497 46.1522C47.0459 46.022 47.1991 45.8365 47.2899 45.6192C47.3806 45.4019 47.4048 45.1625 47.3594 44.9315C47.314 44.7004 47.2011 44.488 47.0349 44.3211C46.8687 44.1543 46.6567 44.0405 46.4258 43.9943C46.1949 43.948 45.9554 43.9713 45.7378 44.0612C45.5201 44.1511 45.3341 44.3036 45.2031 44.4993C45.0722 44.6951 45.0023 44.9253 45.0023 45.1608C45.0019 45.3167 45.0322 45.4713 45.0916 45.6155C45.1509 45.7597 45.2382 45.8909 45.3482 46.0014C45.4583 46.1119 45.5891 46.1996 45.7331 46.2595C45.8771 46.3194 46.0315 46.3503 46.1875 46.3505ZM35.8721 43.1697C36.1076 43.1706 36.3381 43.1016 36.5343 42.9714C36.7305 42.8412 36.8837 42.6557 36.9745 42.4384C37.0652 42.2211 37.0894 41.9818 37.044 41.7507C36.9986 41.5196 36.8857 41.3072 36.7195 41.1404C36.5533 40.9735 36.3413 40.8598 36.1104 40.8135C35.8795 40.7672 35.64 40.7905 35.4224 40.8804C35.2047 40.9704 35.0187 41.1228 34.8877 41.3186C34.7568 41.5143 34.6869 41.7445 34.6869 41.98C34.6865 42.136 34.7168 42.2905 34.7762 42.4347C34.8356 42.579 34.9228 42.7101 35.0328 42.8206C35.1429 42.9311 35.2737 43.0188 35.4177 43.0787C35.5617 43.1386 35.7161 43.1695 35.8721 43.1697ZM49.56 43.1697C49.7954 43.1703 50.0258 43.1011 50.2218 42.9708C50.4179 42.8404 50.5709 42.6548 50.6614 42.4375C50.7519 42.2202 50.776 41.9809 50.7304 41.7499C50.6849 41.5189 50.5718 41.3066 50.4056 41.1399C50.2393 40.9732 50.0273 40.8596 49.7965 40.8134C49.5656 40.7672 49.3262 40.7906 49.1087 40.8806C48.8911 40.9705 48.7051 41.123 48.5742 41.3187C48.4433 41.5144 48.3735 41.7446 48.3735 41.98C48.3731 42.1361 48.4034 42.2907 48.4629 42.435C48.5223 42.5794 48.6096 42.7105 48.7199 42.8211C48.8301 42.9316 48.961 43.0193 49.1052 43.0791C49.2494 43.1389 49.4039 43.1697 49.56 43.1697ZM42.7152 43.1697C42.9507 43.1706 43.1812 43.1016 43.3774 42.9714C43.5736 42.8412 43.7268 42.6557 43.8176 42.4384C43.9083 42.2211 43.9325 41.9818 43.8871 41.7507C43.8417 41.5196 43.7288 41.3072 43.5626 41.1404C43.3964 40.9735 43.1844 40.8598 42.9535 40.8135C42.7226 40.7672 42.4831 40.7905 42.2655 40.8804C42.0478 40.9704 41.8618 41.1228 41.7308 41.3186C41.5999 41.5143 41.53 41.7445 41.53 41.98C41.5296 42.136 41.5599 42.2905 41.6193 42.4347C41.6786 42.579 41.7659 42.7101 41.8759 42.8206C41.986 42.9311 42.1168 43.0188 42.2608 43.0787C42.4048 43.1386 42.5592 43.1695 42.7152 43.1697ZM39.344 52.6954C39.5795 52.6961 39.8098 52.6268 40.0059 52.4965C40.2019 52.3661 40.3549 52.1806 40.4455 51.9632C40.536 51.7459 40.56 51.5066 40.5145 51.2756C40.4689 51.0446 40.3559 50.8323 40.1896 50.6656C40.0234 50.4989 39.8114 50.3853 39.5805 50.3391C39.3496 50.2929 39.1103 50.3163 38.8927 50.4063C38.6751 50.4962 38.4891 50.6487 38.3583 50.8444C38.2274 51.0401 38.1575 51.2703 38.1575 51.5057C38.1571 51.6618 38.1875 51.8164 38.2469 51.9608C38.3064 52.1051 38.3937 52.2363 38.5039 52.3468C38.6141 52.4573 38.7451 52.545 38.8892 52.6048C39.0334 52.6646 39.1879 52.6954 39.344 52.6954ZM32.5008 52.6954C32.7362 52.6961 32.9665 52.6268 33.1626 52.4965C33.3587 52.3661 33.5116 52.1806 33.6022 51.9632C33.6927 51.7459 33.7167 51.5066 33.6712 51.2756C33.6256 51.0446 33.5126 50.8323 33.3463 50.6656C33.1801 50.4989 32.9681 50.3853 32.7372 50.3391C32.5064 50.2929 32.267 50.3163 32.0494 50.4063C31.8318 50.4962 31.6458 50.6487 31.515 50.8444C31.3841 51.0401 31.3143 51.2703 31.3143 51.5057C31.314 51.6618 31.3445 51.8163 31.404 51.9606C31.4634 52.1048 31.5508 52.236 31.661 52.3464C31.7712 52.4569 31.902 52.5446 32.0461 52.6045C32.1902 52.6644 32.3447 52.6953 32.5008 52.6954ZM53.0319 52.6954C53.2673 52.6961 53.4977 52.6268 53.6937 52.4965C53.8898 52.3661 54.0428 52.1806 54.1333 51.9632C54.2239 51.7459 54.2479 51.5066 54.2023 51.2756C54.1568 51.0446 54.0437 50.8323 53.8775 50.6656C53.7112 50.4989 53.4993 50.3853 53.2684 50.3391C53.0375 50.2929 52.7982 50.3163 52.5806 50.4063C52.363 50.4962 52.177 50.6487 52.0461 50.8444C51.9153 51.0401 51.8454 51.2703 51.8454 51.5057C51.8451 51.6618 51.8756 51.8163 51.9351 51.9606C51.9946 52.1048 52.0819 52.236 52.1921 52.3464C52.3023 52.4569 52.4332 52.5446 52.5773 52.6045C52.7214 52.6644 52.8759 52.6953 53.0319 52.6954ZM46.1871 52.6954C46.4226 52.6963 46.6531 52.6273 46.8493 52.4971C47.0456 52.3669 47.1987 52.1814 47.2895 51.9641C47.3802 51.7468 47.4044 51.5075 47.359 51.2764C47.3136 51.0453 47.2007 50.8329 47.0345 50.6661C46.8683 50.4992 46.6563 50.3855 46.4254 50.3392C46.1945 50.2929 45.9551 50.3162 45.7374 50.4062C45.5198 50.4961 45.3337 50.6485 45.2028 50.8443C45.0718 51.04 45.0019 51.2702 45.0019 51.5057C45.0015 51.8207 45.1261 52.1229 45.3484 52.346C45.5708 52.5691 45.8722 52.6948 46.1871 52.6954ZM35.8721 49.5148C36.1076 49.5157 36.3381 49.4467 36.5343 49.3165C36.7305 49.1864 36.8837 49.0009 36.9745 48.7836C37.0652 48.5663 37.0894 48.3269 37.044 48.0958C36.9986 47.8648 36.8857 47.6523 36.7195 47.4855C36.5533 47.3187 36.3413 47.2049 36.1104 47.1586C35.8795 47.1124 35.64 47.1357 35.4224 47.2256C35.2047 47.3155 35.0187 47.468 34.8877 47.6637C34.7568 47.8595 34.6869 48.0897 34.6869 48.3251C34.6865 48.4811 34.7168 48.6356 34.7762 48.7799C34.8356 48.9241 34.9228 49.0552 35.0328 49.1657C35.1429 49.2762 35.2737 49.3639 35.4177 49.4238C35.5617 49.4838 35.7161 49.5147 35.8721 49.5148ZM49.56 49.5148C49.7954 49.5155 50.0258 49.4462 50.2218 49.3159C50.4179 49.1856 50.5709 49 50.6614 48.7826C50.7519 48.5653 50.776 48.326 50.7304 48.095C50.6849 47.864 50.5718 47.6517 50.4056 47.485C50.2393 47.3183 50.0273 47.2047 49.7965 47.1585C49.5656 47.1124 49.3262 47.1357 49.1087 47.2257C48.8911 47.3156 48.7051 47.4681 48.5742 47.6639C48.4433 47.8596 48.3735 48.0897 48.3735 48.3251C48.3731 48.4812 48.4034 48.6359 48.4629 48.7802C48.5223 48.9245 48.6096 49.0557 48.7199 49.1662C48.8301 49.2767 48.961 49.3644 49.1052 49.4242C49.2494 49.4841 49.4039 49.5148 49.56 49.5148ZM42.7152 49.5148C42.9507 49.5157 43.1812 49.4467 43.3774 49.3165C43.5736 49.1864 43.7268 49.0009 43.8176 48.7836C43.9083 48.5663 43.9325 48.3269 43.8871 48.0958C43.8417 47.8648 43.7288 47.6523 43.5626 47.4855C43.3964 47.3187 43.1844 47.2049 42.9535 47.1586C42.7226 47.1124 42.4831 47.1357 42.2655 47.2256C42.0478 47.3155 41.8618 47.468 41.7308 47.6637C41.5999 47.8595 41.53 48.0897 41.53 48.3251C41.5296 48.4811 41.5599 48.6356 41.6193 48.7799C41.6786 48.9241 41.7659 49.0552 41.8759 49.1657C41.986 49.2762 42.1168 49.3639 42.2608 49.4238C42.4048 49.4838 42.5592 49.5147 42.7152 49.5148ZM39.344 59.0406C39.5795 59.0412 39.8098 58.972 40.0059 58.8416C40.2019 58.7113 40.3549 58.5257 40.4455 58.3084C40.536 58.091 40.56 57.8517 40.5145 57.6207C40.4689 57.3897 40.3559 57.1775 40.1896 57.0107C40.0234 56.844 39.8114 56.7304 39.5805 56.6843C39.3496 56.6381 39.1103 56.6615 38.8927 56.7514C38.6751 56.8414 38.4891 56.9938 38.3583 57.1896C38.2274 57.3853 38.1575 57.6154 38.1575 57.8509C38.1571 58.0069 38.1875 58.1616 38.2469 58.3059C38.3064 58.4502 38.3937 58.5814 38.5039 58.6919C38.6141 58.8024 38.7451 58.8901 38.8892 58.9499C39.0334 59.0098 39.1879 59.0406 39.344 59.0406ZM32.5008 59.0406C32.7362 59.0412 32.9665 58.972 33.1626 58.8416C33.3587 58.7113 33.5116 58.5257 33.6022 58.3084C33.6927 58.091 33.7167 57.8517 33.6712 57.6207C33.6256 57.3897 33.5126 57.1775 33.3463 57.0107C33.1801 56.844 32.9681 56.7304 32.7372 56.6843C32.5064 56.6381 32.267 56.6615 32.0494 56.7514C31.8318 56.8414 31.6458 56.9938 31.515 57.1896C31.3841 57.3853 31.3143 57.6154 31.3143 57.8509C31.314 58.0069 31.3445 58.1615 31.404 58.3057C31.4634 58.45 31.5508 58.5811 31.661 58.6916C31.7712 58.8021 31.902 58.8898 32.0461 58.9496C32.1902 59.0095 32.3447 59.0404 32.5008 59.0406ZM53.0319 59.0406C53.2673 59.0412 53.4977 58.972 53.6937 58.8416C53.8898 58.7113 54.0428 58.5257 54.1333 58.3084C54.2239 58.091 54.2479 57.8517 54.2023 57.6207C54.1568 57.3897 54.0437 57.1775 53.8775 57.0107C53.7112 56.844 53.4993 56.7304 53.2684 56.6843C53.0375 56.6381 52.7982 56.6615 52.5806 56.7514C52.363 56.8414 52.177 56.9938 52.0461 57.1896C51.9153 57.3853 51.8454 57.6154 51.8454 57.8509C51.8451 58.0069 51.8756 58.1615 51.9351 58.3057C51.9946 58.45 52.0819 58.5811 52.1921 58.6916C52.3023 58.8021 52.4332 58.8898 52.5773 58.9496C52.7214 59.0095 52.8759 59.0404 53.0319 59.0406ZM46.1871 59.0406C46.4226 59.0415 46.6531 58.9724 46.8493 58.8423C47.0456 58.7121 47.1987 58.5266 47.2895 58.3093C47.3802 58.092 47.4044 57.8526 47.359 57.6215C47.3136 57.3905 47.2007 57.1781 47.0345 57.0112C46.8683 56.8444 46.6563 56.7306 46.4254 56.6844C46.1945 56.6381 45.9551 56.6614 45.7374 56.7513C45.5198 56.8412 45.3337 56.9937 45.2028 57.1894C45.0718 57.3852 45.0019 57.6154 45.0019 57.8509C45.0015 58.1658 45.1261 58.468 45.3484 58.6911C45.5708 58.9142 45.8722 59.0399 46.1871 59.0406ZM35.8721 55.86C36.1076 55.8609 36.3381 55.7919 36.5343 55.6617C36.7305 55.5315 36.8837 55.346 36.9745 55.1287C37.0652 54.9114 37.0894 54.672 37.044 54.441C36.9986 54.2099 36.8857 53.9975 36.7195 53.8307C36.5533 53.6638 36.3413 53.5501 36.1104 53.5038C35.8795 53.4575 35.64 53.4808 35.4224 53.5707C35.2047 53.6606 35.0187 53.8131 34.8877 54.0089C34.7568 54.2046 34.6869 54.4348 34.6869 54.6703C34.6865 54.8263 34.7168 54.9808 34.7762 55.125C34.8356 55.2692 34.9228 55.4004 35.0328 55.5109C35.1429 55.6214 35.2737 55.7091 35.4177 55.769C35.5617 55.8289 35.7161 55.8598 35.8721 55.86ZM49.56 55.86C49.7954 55.8606 50.0258 55.7914 50.2218 55.661C50.4179 55.5307 50.5709 55.3451 50.6614 55.1278C50.7519 54.9104 50.776 54.6711 50.7304 54.4402C50.6849 54.2092 50.5718 53.9969 50.4056 53.8302C50.2393 53.6635 50.0273 53.5498 49.7965 53.5037C49.5656 53.4575 49.3262 53.4809 49.1087 53.5708C48.8911 53.6608 48.7051 53.8133 48.5742 54.009C48.4433 54.2047 48.3735 54.4348 48.3735 54.6703C48.3732 54.8263 48.4037 54.9809 48.4632 55.1251C48.5227 55.2694 48.61 55.4005 48.7202 55.511C48.8304 55.6215 48.9613 55.7092 49.1054 55.7691C49.2495 55.8289 49.4039 55.8598 49.56 55.86ZM42.7152 55.86C42.9507 55.8609 43.1812 55.7919 43.3774 55.6617C43.5736 55.5315 43.7268 55.346 43.8176 55.1287C43.9083 54.9114 43.9325 54.672 43.8871 54.441C43.8417 54.2099 43.7288 53.9975 43.5626 53.8307C43.3964 53.6638 43.1844 53.5501 42.9535 53.5038C42.7226 53.4575 42.4831 53.4808 42.2655 53.5707C42.0478 53.6606 41.8618 53.8131 41.7308 54.0089C41.5999 54.2046 41.53 54.4348 41.53 54.6703C41.5296 54.9852 41.6541 55.2873 41.8764 55.5104C42.0986 55.7335 42.4003 55.8592 42.7152 55.86ZM39.344 65.3857C39.5795 65.3863 39.8098 65.3171 40.0059 65.1868C40.2019 65.0564 40.3549 64.8708 40.4455 64.6535C40.536 64.4362 40.56 64.1969 40.5145 63.9659C40.4689 63.7349 40.3559 63.5226 40.1896 63.3559C40.0234 63.1892 39.8114 63.0756 39.5805 63.0294C39.3496 62.9832 39.1103 63.0066 38.8927 63.0965C38.6751 63.1865 38.4891 63.339 38.3583 63.5347C38.2274 63.7304 38.1575 63.9606 38.1575 64.196C38.1571 64.3521 38.1875 64.5067 38.2469 64.651C38.3064 64.7954 38.3937 64.9265 38.5039 65.037C38.6141 65.1476 38.7451 65.2352 38.8892 65.2951C39.0334 65.3549 39.1879 65.3857 39.344 65.3857ZM32.5008 65.3857C32.7362 65.3863 32.9665 65.3171 33.1626 65.1868C33.3587 65.0564 33.5116 64.8708 33.6022 64.6535C33.6927 64.4362 33.7167 64.1969 33.6712 63.9659C33.6256 63.7349 33.5126 63.5226 33.3463 63.3559C33.1801 63.1892 32.9681 63.0756 32.7372 63.0294C32.5064 62.9832 32.267 63.0066 32.0494 63.0965C31.8318 63.1865 31.6458 63.339 31.515 63.5347C31.3841 63.7304 31.3143 63.9606 31.3143 64.196C31.314 64.352 31.3445 64.5066 31.404 64.6509C31.4634 64.7951 31.5508 64.9262 31.661 65.0367C31.7712 65.1472 31.902 65.2349 32.0461 65.2948C32.1902 65.3547 32.3447 65.3855 32.5008 65.3857ZM53.0319 65.3857C53.2673 65.3863 53.4977 65.3171 53.6937 65.1868C53.8898 65.0564 54.0428 64.8708 54.1333 64.6535C54.2239 64.4362 54.2479 64.1969 54.2023 63.9659C54.1568 63.7349 54.0437 63.5226 53.8775 63.3559C53.7112 63.1892 53.4993 63.0756 53.2684 63.0294C53.0375 62.9832 52.7982 63.0066 52.5806 63.0965C52.363 63.1865 52.177 63.339 52.0461 63.5347C51.9153 63.7304 51.8454 63.9606 51.8454 64.196C51.8451 64.352 51.8756 64.5066 51.9351 64.6509C51.9946 64.7951 52.0819 64.9262 52.1921 65.0367C52.3023 65.1472 52.4332 65.2349 52.5773 65.2948C52.7214 65.3547 52.8759 65.3855 53.0319 65.3857ZM46.1871 65.3857C46.4226 65.3866 46.6531 65.3176 46.8493 65.1874C47.0456 65.0572 47.1987 64.8717 47.2895 64.6544C47.3802 64.4371 47.4044 64.1978 47.359 63.9667C47.3136 63.7356 47.2007 63.5232 47.0345 63.3564C46.8683 63.1895 46.6563 63.0758 46.4254 63.0295C46.1945 62.9832 45.9551 63.0065 45.7374 63.0964C45.5198 63.1863 45.3337 63.3388 45.2028 63.5346C45.0718 63.7303 45.0019 63.9605 45.0019 64.196C45.0015 64.5109 45.1261 64.8132 45.3484 65.0363C45.5708 65.2594 45.8722 65.385 46.1871 65.3857ZM35.8721 62.2051C36.1076 62.206 36.3381 62.137 36.5343 62.0068C36.7305 61.8766 36.8837 61.6912 36.9745 61.4738C37.0652 61.2565 37.0894 61.0172 37.044 60.7861C36.9986 60.555 36.8857 60.3426 36.7195 60.1758C36.5533 60.009 36.3413 59.8952 36.1104 59.8489C35.8795 59.8027 35.64 59.8259 35.4224 59.9159C35.2047 60.0058 35.0187 60.1582 34.8877 60.354C34.7568 60.5497 34.6869 60.7799 34.6869 61.0154C34.6865 61.1714 34.7168 61.3259 34.7762 61.4702C34.8356 61.6144 34.9228 61.7455 35.0328 61.856C35.1429 61.9665 35.2737 62.0542 35.4177 62.1141C35.5617 62.174 35.7161 62.2049 35.8721 62.2051ZM49.56 62.2051C49.7954 62.2058 50.0258 62.1365 50.2218 62.0062C50.4179 61.8758 50.5709 61.6903 50.6614 61.4729C50.7519 61.2556 50.776 61.0163 50.7304 60.7853C50.6849 60.5543 50.5718 60.342 50.4056 60.1753C50.2393 60.0086 50.0273 59.895 49.7965 59.8488C49.5656 59.8027 49.3262 59.826 49.1087 59.916C48.8911 60.0059 48.7051 60.1584 48.5742 60.3541C48.4433 60.5498 48.3735 60.78 48.3735 61.0154C48.3732 61.1715 48.4037 61.326 48.4632 61.4703C48.5227 61.6145 48.61 61.7457 48.7202 61.8561C48.8304 61.9666 48.9613 62.0543 49.1054 62.1142C49.2495 62.1741 49.4039 62.205 49.56 62.2051ZM42.7152 62.2051C42.9507 62.206 43.1812 62.137 43.3774 62.0068C43.5736 61.8766 43.7268 61.6912 43.8176 61.4738C43.9083 61.2565 43.9325 61.0172 43.8871 60.7861C43.8417 60.555 43.7288 60.3426 43.5626 60.1758C43.3964 60.009 43.1844 59.8952 42.9535 59.8489C42.7226 59.8027 42.4831 59.8259 42.2655 59.9159C42.0478 60.0058 41.8618 60.1582 41.7308 60.354C41.5999 60.5497 41.53 60.7799 41.53 61.0154C41.5296 61.3303 41.6541 61.6325 41.8764 61.8556C42.0986 62.0786 42.4003 62.2044 42.7152 62.2051ZM39.344 71.7293C39.5793 71.7298 39.8095 71.6605 40.0053 71.5301C40.2012 71.3997 40.354 71.2141 40.4443 70.9969C40.5346 70.7796 40.5585 70.5405 40.5128 70.3097C40.4672 70.0788 40.354 69.8668 40.1878 69.7003C40.0215 69.5338 39.8096 69.4204 39.5789 69.3744C39.3481 69.3284 39.1089 69.3519 38.8915 69.4419C38.6742 69.5319 38.4884 69.6845 38.3577 69.8801C38.2271 70.0758 38.1574 70.3058 38.1575 70.5411C38.1572 70.6971 38.1876 70.8517 38.2471 70.9959C38.3065 71.1401 38.3939 71.2712 38.5041 71.3815C38.6143 71.4919 38.7453 71.5795 38.8894 71.6392C39.0335 71.6988 39.188 71.7295 39.344 71.7293ZM32.5008 71.7293C32.736 71.7298 32.9662 71.6605 33.162 71.5301C33.3579 71.3997 33.5107 71.2141 33.601 70.9969C33.6914 70.7796 33.7152 70.5405 33.6695 70.3097C33.6239 70.0788 33.5108 69.8668 33.3445 69.7003C33.1783 69.5338 32.9663 69.4204 32.7356 69.3744C32.5048 69.3284 32.2656 69.3519 32.0483 69.4419C31.8309 69.5319 31.6451 69.6845 31.5144 69.8801C31.3838 70.0758 31.3141 70.3058 31.3143 70.5411C31.314 70.6971 31.3446 70.8516 31.4041 70.9957C31.4636 71.1399 31.551 71.2709 31.6612 71.3812C31.7714 71.4916 31.9022 71.5791 32.0463 71.6389C32.1904 71.6986 32.3448 71.7293 32.5008 71.7293ZM53.0319 71.7293C53.2672 71.7298 53.4973 71.6605 53.6932 71.5301C53.8891 71.3997 54.0418 71.2141 54.1322 70.9969C54.2225 70.7796 54.2464 70.5405 54.2007 70.3097C54.155 70.0788 54.0419 69.8668 53.8757 69.7003C53.7094 69.5338 53.4975 69.4204 53.2668 69.3744C53.036 69.3284 52.7968 69.3519 52.5794 69.4419C52.362 69.5319 52.1762 69.6845 52.0456 69.8801C51.9149 70.0758 51.8453 70.3058 51.8454 70.5411C51.8452 70.6971 51.8757 70.8516 51.9352 70.9957C51.9948 71.1399 52.0821 71.2709 52.1923 71.3812C52.3025 71.4916 52.4334 71.5791 52.5775 71.6389C52.7215 71.6986 52.876 71.7293 53.0319 71.7293ZM46.1871 71.7293C46.4225 71.7301 46.6527 71.661 46.8488 71.5307C47.0448 71.4005 47.1978 71.215 47.2883 70.9978C47.3789 70.7806 47.4029 70.5414 47.3574 70.3105C47.3119 70.0796 47.1989 69.8674 47.0327 69.7007C46.8665 69.5341 46.6546 69.4206 46.4238 69.3745C46.193 69.3284 45.9537 69.3518 45.7363 69.4418C45.5188 69.5318 45.3329 69.6843 45.2022 69.88C45.0715 70.0757 45.0018 70.3058 45.0019 70.5411C45.0017 70.697 45.0322 70.8514 45.0917 70.9955C45.1512 71.1396 45.2384 71.2705 45.3485 71.3809C45.4586 71.4912 45.5894 71.5788 45.7333 71.6386C45.8773 71.6984 46.0312 71.7292 46.1871 71.7293ZM59.8741 40.0051C60.1096 40.006 60.34 39.937 60.5362 39.8068C60.7325 39.6767 60.8857 39.4912 60.9764 39.2739C61.0672 39.0566 61.0914 38.8172 61.046 38.5861C61.0006 38.355 60.8876 38.1426 60.7214 37.9758C60.5552 37.809 60.3432 37.6952 60.1123 37.6489C59.8814 37.6027 59.642 37.626 59.4244 37.7159C59.2067 37.8058 59.0206 37.9583 58.8897 38.154C58.7588 38.3498 58.6889 38.5799 58.6889 38.8154C58.6885 38.9714 58.7188 39.1259 58.7781 39.2702C58.8375 39.4144 58.9247 39.5455 59.0348 39.656C59.1449 39.7665 59.2757 39.8542 59.4197 39.9141C59.5637 39.974 59.7181 40.005 59.8741 40.0051ZM59.8741 46.3503C60.1096 46.3512 60.34 46.2822 60.5362 46.152C60.7325 46.0218 60.8857 45.8363 60.9764 45.619C61.0672 45.4017 61.0914 45.1623 61.046 44.9313C61.0006 44.7002 60.8876 44.4878 60.7214 44.3209C60.5552 44.1541 60.3432 44.0404 60.1123 43.9941C59.8814 43.9478 59.642 43.9711 59.4244 44.061C59.2067 44.1509 59.0206 44.3034 58.8897 44.4991C58.7588 44.6949 58.6889 44.9251 58.6889 45.1606C58.6885 45.3166 58.7188 45.4711 58.7781 45.6153C58.8375 45.7596 58.9247 45.8907 59.0348 46.0012C59.1449 46.1117 59.2757 46.1994 59.4197 46.2593C59.5637 46.3192 59.7181 46.3501 59.8741 46.3503ZM59.8741 52.6952C60.1096 52.6961 60.34 52.6271 60.5362 52.4969C60.7325 52.3668 60.8857 52.1813 60.9764 51.9639C61.0672 51.7466 61.0914 51.5073 61.046 51.2762C61.0006 51.0451 60.8876 50.8327 60.7214 50.6659C60.5552 50.4991 60.3432 50.3853 60.1123 50.339C59.8814 50.2928 59.642 50.316 59.4244 50.406C59.2067 50.4959 59.0206 50.6484 58.8897 50.8441C58.7588 51.0398 58.6889 51.27 58.6889 51.5055C58.6884 51.8204 58.813 52.1226 59.0352 52.3457C59.2575 52.5688 59.5592 52.6945 59.8741 52.6952ZM59.8741 59.0404C60.1096 59.0413 60.34 58.9722 60.5362 58.8421C60.7325 58.7119 60.8857 58.5264 60.9764 58.3091C61.0672 58.0918 61.0914 57.8524 61.046 57.6214C61.0006 57.3903 60.8876 57.1779 60.7214 57.011C60.5552 56.8442 60.3432 56.7304 60.1123 56.6842C59.8814 56.6379 59.642 56.6612 59.4244 56.7511C59.2067 56.841 59.0206 56.9935 58.8897 57.1892C58.7588 57.385 58.6889 57.6152 58.6889 57.8507C58.6884 58.1656 58.813 58.4677 59.0352 58.6908C59.2575 58.9139 59.5592 59.0396 59.8741 59.0404ZM59.8741 65.3855C60.1096 65.3864 60.34 65.3174 60.5362 65.1872C60.7325 65.057 60.8857 64.8715 60.9764 64.6542C61.0672 64.4369 61.0914 64.1976 61.046 63.9665C61.0006 63.7354 60.8876 63.523 60.7214 63.3562C60.5552 63.1893 60.3432 63.0756 60.1123 63.0293C59.8814 62.983 59.642 63.0063 59.4244 63.0962C59.2067 63.1861 59.0206 63.3386 58.8897 63.5344C58.7588 63.7301 58.6889 63.9603 58.6889 64.1958C58.6884 64.5107 58.813 64.8129 59.0352 65.0359C59.2575 65.259 59.5592 65.3848 59.8741 65.3855ZM59.8741 71.7291C60.1094 71.7299 60.3397 71.6608 60.5357 71.5305C60.7317 71.4003 60.8847 71.2149 60.9753 70.9976C61.0658 70.7804 61.0898 70.5412 61.0443 70.3103C60.9988 70.0794 60.8858 69.8672 60.7196 69.7006C60.5534 69.5339 60.3415 69.4204 60.1107 69.3743C59.8799 69.3282 59.6406 69.3516 59.4232 69.4416C59.2057 69.5316 59.0199 69.6841 58.8892 69.8798C58.7584 70.0755 58.6887 70.3056 58.6889 70.5409C58.6887 70.6968 58.7191 70.8512 58.7786 70.9952C58.838 71.1393 58.9253 71.2702 59.0353 71.3806C59.1454 71.4909 59.2761 71.5785 59.42 71.6383C59.5639 71.6981 59.7182 71.729 59.8741 71.7291ZM35.8721 68.5501C36.1076 68.551 36.3381 68.482 36.5343 68.3518C36.7305 68.2216 36.8837 68.0361 36.9745 67.8188C37.0652 67.6015 37.0894 67.3621 37.044 67.1311C36.9986 66.9 36.8857 66.6876 36.7195 66.5207C36.5533 66.3539 36.3413 66.2401 36.1104 66.1939C35.8795 66.1476 35.64 66.1709 35.4224 66.2608C35.2047 66.3507 35.0187 66.5032 34.8877 66.6989C34.7568 66.8947 34.6869 67.1249 34.6869 67.3604C34.6865 67.5163 34.7168 67.6709 34.7762 67.8151C34.8356 67.9593 34.9228 68.0905 35.0328 68.201C35.1429 68.3115 35.2737 68.3992 35.4177 68.4591C35.5617 68.519 35.7161 68.5499 35.8721 68.5501ZM49.56 68.5501C49.7954 68.5507 50.0258 68.4815 50.2218 68.3511C50.4179 68.2208 50.5709 68.0352 50.6614 67.8179C50.7519 67.6005 50.776 67.3612 50.7304 67.1302C50.6849 66.8993 50.5718 66.687 50.4056 66.5203C50.2393 66.3536 50.0273 66.2399 49.7965 66.1938C49.5656 66.1476 49.3262 66.171 49.1087 66.2609C48.8911 66.3509 48.7051 66.5034 48.5742 66.6991C48.4433 66.8948 48.3735 67.1249 48.3735 67.3604C48.3732 67.5164 48.4037 67.671 48.4632 67.8152C48.5227 67.9595 48.61 68.0906 48.7202 68.2011C48.8304 68.3116 48.9613 68.3993 49.1054 68.4591C49.2495 68.519 49.4039 68.5499 49.56 68.5501ZM42.7152 68.5501C42.9507 68.551 43.1812 68.482 43.3774 68.3518C43.5736 68.2216 43.7268 68.0361 43.8176 67.8188C43.9083 67.6015 43.9325 67.3621 43.8871 67.1311C43.8417 66.9 43.7288 66.6876 43.5626 66.5207C43.3964 66.3539 43.1844 66.2401 42.9535 66.1939C42.7226 66.1476 42.4831 66.1709 42.2655 66.2608C42.0478 66.3507 41.8618 66.5032 41.7308 66.6989C41.5999 66.8947 41.53 67.1249 41.53 67.3604C41.5296 67.6753 41.6541 67.9774 41.8764 68.2005C42.0986 68.4236 42.4003 68.5493 42.7152 68.5501ZM56.453 43.1695C56.6885 43.1704 56.9189 43.1014 57.1152 42.9712C57.3114 42.841 57.4646 42.6555 57.5553 42.4382C57.6461 42.2209 57.6703 41.9816 57.6249 41.7505C57.5795 41.5194 57.4665 41.307 57.3003 41.1402C57.1341 40.9733 56.9222 40.8596 56.6913 40.8133C56.4604 40.767 56.2209 40.7903 56.0033 40.8803C55.7856 40.9702 55.5995 41.1226 55.4686 41.3184C55.3377 41.5141 55.2678 41.7443 55.2678 41.9798C55.2674 42.1358 55.2977 42.2903 55.3571 42.4346C55.4164 42.5788 55.5036 42.7099 55.6137 42.8204C55.7238 42.9309 55.8546 43.0186 55.9986 43.0785C56.1426 43.1384 56.297 43.1693 56.453 43.1695ZM56.453 49.5147C56.6885 49.5156 56.9189 49.4465 57.1152 49.3164C57.3114 49.1862 57.4646 49.0007 57.5553 48.7834C57.6461 48.5661 57.6703 48.3267 57.6249 48.0956C57.5795 47.8646 57.4665 47.6522 57.3003 47.4853C57.1341 47.3185 56.9222 47.2047 56.6913 47.1585C56.4604 47.1122 56.2209 47.1355 56.0033 47.2254C55.7856 47.3153 55.5995 47.4678 55.4686 47.6635C55.3377 47.8593 55.2678 48.0895 55.2678 48.325C55.2674 48.4809 55.2977 48.6355 55.3571 48.7797C55.4164 48.9239 55.5036 49.055 55.6137 49.1655C55.7238 49.276 55.8546 49.3638 55.9986 49.4237C56.1426 49.4836 56.297 49.5145 56.453 49.5147ZM56.453 55.8598C56.6885 55.8607 56.9189 55.7917 57.1152 55.6615C57.3114 55.5313 57.4646 55.3458 57.5553 55.1285C57.6461 54.9112 57.6703 54.6719 57.6249 54.4408C57.5795 54.2097 57.4665 53.9973 57.3003 53.8305C57.1341 53.6636 56.9222 53.5499 56.6913 53.5036C56.4604 53.4573 56.2209 53.4806 56.0033 53.5705C55.7856 53.6604 55.5995 53.8129 55.4686 54.0087C55.3377 54.2044 55.2678 54.4346 55.2678 54.6701C55.2674 54.8261 55.2977 54.9806 55.3571 55.1248C55.4164 55.2691 55.5036 55.4002 55.6137 55.5107C55.7238 55.6212 55.8546 55.7089 55.9986 55.7688C56.1426 55.8287 56.297 55.8596 56.453 55.8598ZM56.453 62.2049C56.6885 62.2058 56.9189 62.1368 57.1152 62.0066C57.3114 61.8765 57.4646 61.691 57.5553 61.4737C57.6461 61.2563 57.6703 61.017 57.6249 60.7859C57.5795 60.5548 57.4665 60.3424 57.3003 60.1756C57.1341 60.0088 56.9222 59.895 56.6913 59.8487C56.4604 59.8025 56.2209 59.8258 56.0033 59.9157C55.7856 60.0056 55.5995 60.1581 55.4686 60.3538C55.3377 60.5495 55.2678 60.7797 55.2678 61.0152C55.2674 61.1712 55.2977 61.3257 55.3571 61.47C55.4164 61.6142 55.5036 61.7453 55.6137 61.8558C55.7238 61.9663 55.8546 62.054 55.9986 62.1139C56.1426 62.1738 56.297 62.2048 56.453 62.2049ZM56.453 68.5501C56.6885 68.551 56.9189 68.482 57.1152 68.3518C57.3114 68.2216 57.4646 68.0361 57.5553 67.8188C57.6461 67.6015 57.6703 67.3621 57.6249 67.1311C57.5795 66.9 57.4665 66.6876 57.3003 66.5207C57.1341 66.3539 56.9222 66.2401 56.6913 66.1939C56.4604 66.1476 56.2209 66.1709 56.0033 66.2608C55.7856 66.3507 55.5995 66.5032 55.4686 66.6989C55.3377 66.8947 55.2678 67.1249 55.2678 67.3604C55.2674 67.5163 55.2977 67.6709 55.3571 67.8151C55.4164 67.9593 55.5036 68.0905 55.6137 68.201C55.7238 68.3115 55.8546 68.3992 55.9986 68.4591C56.1426 68.519 56.297 68.5499 56.453 68.5501Z" fill="white"/>
</svg>
