<svg width="146" height="150" viewBox="0 0 146 150" fill="none" xmlns="http://www.w3.org/2000/svg">
<path d="M72.8571 75C66.1785 75 60.4612 72.5521 55.7053 67.6562C50.9493 62.7604 48.5714 56.875 48.5714 50C48.5714 43.125 50.9493 37.2396 55.7053 32.3438C60.4612 27.4479 66.1785 25 72.8571 25C79.5357 25 85.2529 27.4479 90.0089 32.3438C94.7648 37.2396 97.1428 43.125 97.1428 50C97.1428 56.875 94.7648 62.7604 90.0089 67.6562C85.2529 72.5521 79.5357 75 72.8571 75ZM24.2856 125V107.5C24.2856 103.958 25.1711 100.703 26.9419 97.7344C28.7127 94.7656 31.0654 92.5 33.9999 90.9375C40.2737 87.7083 46.6487 85.2865 53.1249 83.6719C59.6011 82.0573 66.1785 81.25 72.8571 81.25C79.5357 81.25 86.113 82.0573 92.5892 83.6719C99.0654 85.2865 105.44 87.7083 111.714 90.9375C114.649 92.5 117.001 94.7656 118.772 97.7344C120.543 100.703 121.429 103.958 121.429 107.5V125H24.2856ZM36.4285 112.5H109.286V107.5C109.286 106.354 109.007 105.312 108.451 104.375C107.894 103.438 107.161 102.708 106.25 102.188C100.786 99.375 95.2708 97.2656 89.7053 95.8594C84.1398 94.4531 78.5237 93.75 72.8571 93.75C67.1904 93.75 61.5743 94.4531 56.0089 95.8594C50.4434 97.2656 44.9285 99.375 39.4642 102.188C38.5535 102.708 37.8199 103.438 37.2633 104.375C36.7068 105.312 36.4285 106.354 36.4285 107.5V112.5ZM72.8571 62.5C76.1964 62.5 79.055 61.276 81.433 58.8281C83.811 56.3802 84.9999 53.4375 84.9999 50C84.9999 46.5625 83.811 43.6198 81.433 41.1719C79.055 38.724 76.1964 37.5 72.8571 37.5C69.5178 37.5 66.6592 38.724 64.2812 41.1719C61.9032 43.6198 60.7142 46.5625 60.7142 50C60.7142 53.4375 61.9032 56.3802 64.2812 58.8281C66.6592 61.276 69.5178 62.5 72.8571 62.5Z" fill="#49454F"/>
</svg>
